<svg width="24" height="24" viewBox="0 0 24 24" fill="none" xmlns="http://www.w3.org/2000/svg">
<path d="M5.70696 5.70696C5.31643 6.09748 5.31643 6.73065 5.70696 7.12117L10.6567 12.0709L5.70697 17.0207C5.31645 17.4112 5.31645 18.0444 5.70697 18.4349C6.0975 18.8254 6.73066 18.8254 7.12118 18.4349L12.0709 13.4851L17.0207 18.4349C17.4112 18.8254 18.0444 18.8254 18.4349 18.4349C18.8254 18.0444 18.8254 17.4112 18.4349 17.0207L13.4851 12.0709L18.4349 7.12117C18.8254 6.73065 18.8254 6.09748 18.4349 5.70696C18.0444 5.31643 17.4112 5.31643 17.0207 5.70696L12.0709 10.6567L7.12117 5.70696C6.73064 5.31643 6.09748 5.31643 5.70696 5.70696Z" fill="#272727" fill-opacity="0.5"/>
</svg>
