<svg width="16" height="16" viewBox="0 0 16 16" fill="none" xmlns="http://www.w3.org/2000/svg">
<path fill-rule="evenodd" clip-rule="evenodd" d="M6.25854 2.41421C7.02418 1.05987 8.97536 1.05982 9.74096 2.41421L14.9799 11.6831C15.7334 13.0163 14.7698 14.6675 13.2384 14.6675H2.76049C1.22918 14.6673 0.266076 13.0163 1.0196 11.6831L6.25854 2.41421ZM7.99747 10.6675C7.62928 10.6675 7.3308 10.9659 7.3308 11.3341C7.33088 11.7023 7.62933 12.0008 7.99747 12.0008C8.36556 12.0008 8.66405 11.7022 8.66413 11.3341C8.66413 10.966 8.36561 10.6675 7.99747 10.6675ZM7.99747 5.33414C7.62928 5.33414 7.3308 5.63261 7.3308 6.0008V8.66747C7.33088 9.03559 7.62933 9.33414 7.99747 9.33414C8.36556 9.33408 8.66405 9.03556 8.66413 8.66747V6.0008C8.66413 5.63265 8.36561 5.33419 7.99747 5.33414Z" fill="#E23A4B"/>
</svg>
