<svg width="16" height="16" viewBox="0 0 16 16" fill="none" xmlns="http://www.w3.org/2000/svg">
<path fill-rule="evenodd" clip-rule="evenodd" d="M12.0007 1.33398C13.4734 1.33398 14.6673 2.52789 14.6673 4.00065V12.0007C14.6673 13.4734 13.4734 14.6673 12.0007 14.6673H4.00065C2.52789 14.6673 1.33398 13.4734 1.33398 12.0007V4.00065C1.33398 2.52789 2.52789 1.33398 4.00065 1.33398H12.0007ZM8.00065 7.33398C7.63246 7.33398 7.33398 7.63246 7.33398 8.00065V10.6673C7.33398 11.0355 7.63246 11.334 8.00065 11.334C8.36884 11.334 8.66732 11.0355 8.66732 10.6673V8.00065C8.66732 7.63246 8.36884 7.33398 8.00065 7.33398ZM8.00065 4.66732C7.63246 4.66732 7.33398 4.96579 7.33398 5.33398C7.33398 5.70217 7.63246 6.00065 8.00065 6.00065C8.36884 6.00065 8.66732 5.70217 8.66732 5.33398C8.66732 4.96579 8.36884 4.66732 8.00065 4.66732Z" fill="#C2C3C6"/>
</svg>
