<svg width="28" height="27" viewBox="0 0 28 27" fill="none" xmlns="http://www.w3.org/2000/svg">
<g clip-path="url(#clip0_2252_4539)">
<path d="M25.6099 25.5152L19.7068 23.7575L15.2553 26.4186L12.1494 26.4172L7.69516 23.7575L1.79486 25.5152L0 19.4562L1.79486 12.7317L0 7.04639L1.79486 0L11.0145 5.50833H16.39L25.6099 0L27.4047 7.04639L25.6099 12.7317L27.4047 19.4562L25.6099 25.5152Z" fill="#FF5C16"/>
<path d="M1.79688 0L11.0167 5.5122L10.6501 9.29519L1.79688 0ZM7.69737 19.4588L11.754 22.549L7.69737 23.7575V19.4588ZM11.4298 14.3498L10.6501 9.29771L5.65946 12.7333L5.65675 12.7319V12.7344L5.67224 16.2707L7.69601 14.35L11.4298 14.3498ZM25.6107 0L16.3909 5.5122L16.7563 9.29519L25.6107 0ZM19.7104 19.4588L15.6536 22.549L19.7104 23.7575V19.4588ZM21.7495 12.7342V12.7317L21.7483 12.7331L16.7576 9.29771L15.978 14.3498H19.7102L21.7353 16.2703L21.7495 12.7342Z" fill="#FF5C16"/>
<path d="M7.69516 23.7567L1.79486 25.5144L0 19.458H7.69516V23.7567ZM11.4276 14.3477L12.5547 21.6514L10.9926 17.5903L5.66887 16.2696L7.6938 14.3479H11.4276V14.3477ZM19.7094 23.7567L25.6099 25.5144L27.4047 19.458H19.7094V23.7567ZM15.9771 14.3477L14.85 21.6514L16.4119 17.5903L21.7358 16.2696L19.7096 14.3479H15.9771V14.3477Z" fill="#E34807"/>
<path d="M0 19.4557L1.79486 12.7312H5.65454L5.66868 16.2686L10.9928 17.5894L12.5547 21.6503L11.7518 22.5446L7.69516 19.4544H0V19.4557ZM27.4047 19.4557L25.6099 12.7312H21.75L21.7358 16.2686L16.4121 17.5894L14.85 21.6503L15.6527 22.5446L19.7096 19.4544H27.4047V19.4557ZM16.39 5.50781H11.0145L10.6495 9.29081L12.5549 21.6464H14.85L16.7566 9.29081L16.39 5.50781Z" fill="#FF8D5D"/>
<path d="M1.79486 0L0 7.04639L1.79486 12.7317H5.65454L10.6479 9.29519L1.79486 0ZM10.3121 15.8154H8.56354L7.6115 16.7487L10.994 17.5872L10.3121 15.8142V15.8154ZM25.6099 0L27.4047 7.04639L25.6099 12.7317H21.75L16.7568 9.29519L25.6099 0ZM17.0951 15.8154H18.8462L19.7983 16.7498L16.4119 17.5899L17.0951 15.814V15.8154ZM15.254 24.0083L15.6529 22.5477L14.85 21.6533H12.5532L11.7504 22.5477L12.1492 24.0083" fill="#661800"/>
<path d="M15.253 24.0078V26.4195H12.1484V24.0078H15.253Z" fill="#C0C4CD"/>
<path d="M7.69727 23.7553L12.1527 26.419V24.0073L11.7537 22.5469L7.69727 23.7553ZM19.7103 23.7553L15.2547 26.419V24.0073L15.6537 22.5469L19.7103 23.7553Z" fill="#E7EBF6"/>
</g>
<defs>
<clipPath id="clip0_2252_4539">
<rect width="27.5" height="26.5317" fill="white"/>
</clipPath>
</defs>
</svg>
