<svg width="24" height="24" viewBox="0 0 24 24" fill="none" xmlns="http://www.w3.org/2000/svg">
<path fill-rule="evenodd" clip-rule="evenodd" d="M12 8.46588C10.0481 8.46588 8.46576 10.0482 8.46576 12.0001C8.46576 13.952 10.0481 15.5344 12 15.5344C13.9519 15.5344 15.5342 13.952 15.5342 12.0001C15.5342 10.0482 13.9519 8.46588 12 8.46588ZM10.2329 12.0001C10.2329 11.0242 11.024 10.233 12 10.233C12.976 10.233 13.7671 11.0242 13.7671 12.0001C13.7671 12.9761 12.976 13.7672 12 13.7672C11.024 13.7672 10.2329 12.9761 10.2329 12.0001Z" fill="#272727" fill-opacity="0.5"/>
<path fill-rule="evenodd" clip-rule="evenodd" d="M13.9812 4.06357C12.9268 2.87725 11.0732 2.87725 10.0188 4.06357L8.63695 5.61827C8.51041 5.76064 8.34125 5.8583 8.15468 5.8967L6.11736 6.31606C4.56276 6.63606 3.63597 8.24131 4.13614 9.74763L4.79163 11.7217C4.85166 11.9024 4.85166 12.0978 4.79163 12.2786L4.13614 14.2526C3.63597 15.7589 4.56276 17.3642 6.11736 17.6842L8.15468 18.1035C8.34125 18.1419 8.51041 18.2396 8.63695 18.382L10.0188 19.9367C11.0732 21.123 12.9268 21.123 13.9812 19.9367L15.3631 18.382C15.4896 18.2396 15.6588 18.1419 15.8453 18.1035L17.8826 17.6842C19.4372 17.3642 20.364 15.7589 19.8639 14.2526L19.2084 12.2786C19.1483 12.0978 19.1483 11.9024 19.2084 11.7217L19.8639 9.74763C20.364 8.2413 19.4372 6.63606 17.8826 6.31606L15.8453 5.8967C15.6588 5.8583 15.4896 5.76064 15.363 5.61826L13.9812 4.06357ZM11.3396 5.23753C11.6911 4.84209 12.3089 4.84209 12.6604 5.23753L14.0422 6.79222C14.4219 7.21933 14.9293 7.51233 15.489 7.62754L17.5264 8.04689C18.0446 8.15356 18.3535 8.68864 18.1868 9.19075L17.5313 11.1648C17.3512 11.7071 17.3512 12.2931 17.5313 12.8354L18.1868 14.8095C18.3535 15.3116 18.0446 15.8467 17.5264 15.9533L15.489 16.3727C14.9293 16.4879 14.4219 16.7809 14.0422 17.208L12.6604 18.7627C12.3089 19.1581 11.6911 19.1581 11.3396 18.7627L9.95776 17.208C9.57814 16.7809 9.07065 16.4879 8.51095 16.3727L6.47363 15.9533C5.95543 15.8467 5.6465 15.3116 5.81322 14.8095L6.46871 12.8354C6.64879 12.2931 6.64879 11.7071 6.46871 11.1648L5.81323 9.19075C5.6465 8.68864 5.95543 8.15356 6.47363 8.0469L8.51095 7.62754C9.07065 7.51233 9.57814 7.21933 9.95776 6.79222L11.3396 5.23753Z" fill="#272727" fill-opacity="0.5"/>
</svg>
