<svg width="52" height="40" viewBox="0 0 52 40" fill="none" xmlns="http://www.w3.org/2000/svg">
<rect x="1" y="1" width="50" height="38" rx="13" fill="#FEFEFF"/>
<rect x="1" y="1" width="50" height="38" rx="13" stroke="#E9EAF2" stroke-width="2"/>
<path d="M27 13C27 12.4477 26.5523 12 26 12C25.4477 12 25 12.4477 25 13V24.5858L20.7071 20.2929C20.3166 19.9024 19.6834 19.9024 19.2929 20.2929C18.9024 20.6834 18.9024 21.3166 19.2929 21.7071L25.2929 27.7071C25.6834 28.0976 26.3166 28.0976 26.7071 27.7071L32.7071 21.7071C33.0976 21.3166 33.0976 20.6834 32.7071 20.2929C32.3166 19.9024 31.6834 19.9024 31.2929 20.2929L27 24.5858V13Z" fill="#272727" fill-opacity="0.7"/>
</svg>
