<svg width="14" height="14" viewBox="0 0 14 14" fill="none" xmlns="http://www.w3.org/2000/svg">
<path d="M10 8C10.3682 8 10.6667 8.29848 10.6667 8.66667C10.6667 9.03486 10.3682 9.33333 10 9.33333H8.66667C8.29848 9.33333 8 9.03486 8 8.66667C8 8.29848 8.29848 8 8.66667 8H10Z" fill="#272727" fill-opacity="0.5"/>
<path fill-rule="evenodd" clip-rule="evenodd" d="M8.66667 0C10.5076 0 12 1.49238 12 3.33333V4.66667C12.8096 5.27481 13.3333 6.24284 13.3333 7.33333V10C13.3333 11.8409 11.8409 13.3333 10 13.3333H3.33333C1.54981 13.3333 0.0936858 11.9326 0.00455729 10.1712L0 10V2.66667C0 1.19391 1.19391 0 2.66667 0H8.66667ZM1.33333 10L1.33594 10.1029C1.38948 11.1596 2.26326 12 3.33333 12H10C11.1046 12 12 11.1046 12 10V7.33333C12 6.22876 11.1046 5.33333 10 5.33333H2.66667C2.18071 5.33333 1.72569 5.20236 1.33333 4.97526V10ZM2.66667 1.33333C1.93029 1.33333 1.33333 1.93029 1.33333 2.66667C1.33333 3.40305 1.93029 4 2.66667 4H10C10.2283 4 10.4513 4.02269 10.6667 4.06641V3.33333C10.6667 2.22876 9.77124 1.33333 8.66667 1.33333H2.66667Z" fill="#272727" fill-opacity="0.5"/>
</svg>
