<svg width="24" height="24" viewBox="0 0 24 24" fill="none" xmlns="http://www.w3.org/2000/svg">
<rect width="24" height="24" rx="6" fill="#F7931A"/>
<path d="M17.9686 10.4323C18.2183 8.75108 16.9475 7.8473 15.2099 7.24438L15.7736 4.96696L14.3973 4.62147L13.8486 6.83888C13.4868 6.74807 13.1152 6.66239 12.7459 6.5775L13.2986 4.34548L11.9232 4L11.3591 6.27663C11.0596 6.20793 10.7657 6.14002 10.4803 6.06855L10.4819 6.06145L8.58391 5.58409L8.21781 7.06473C8.21781 7.06473 9.23891 7.30045 9.21735 7.31506C9.77474 7.45522 9.87548 7.82676 9.85863 8.12131L9.21657 10.7158C9.25498 10.7257 9.30476 10.7399 9.35964 10.762C9.31378 10.7505 9.26478 10.7379 9.21421 10.7257L8.31423 14.3601C8.24603 14.5307 8.07317 14.7866 7.68354 14.6894C7.69726 14.7096 6.68322 14.4379 6.68322 14.4379L6 16.0248L7.79094 16.4745C8.12413 16.5586 8.45064 16.6466 8.77206 16.7296L8.20252 19.033L9.57719 19.3785L10.1412 17.0995C10.5168 17.2022 10.8813 17.2969 11.238 17.3862L10.6759 19.6545L12.0521 20L12.6217 17.7009C14.9684 18.1482 16.7331 17.9678 17.4759 15.8297C18.0745 14.1082 17.4461 13.1152 16.2114 12.4677C17.1106 12.2588 17.7879 11.663 17.9686 10.4323ZM14.8242 14.8738C14.3989 16.5953 11.5214 15.6647 10.5885 15.4313L11.3442 12.3796C12.2771 12.6142 15.2687 13.0785 14.8242 14.8738ZM15.2499 10.4074C14.8618 11.9733 12.4668 11.1778 11.6899 10.9827L12.3751 8.21489C13.152 8.40994 15.654 8.77398 15.2499 10.4074Z" fill="white"/>
</svg>
